<svg width="449" height="449" viewBox="0 0 449 449" fill="none" xmlns="http://www.w3.org/2000/svg">
<path d="M420 342C404.12 326 365.66 302.65 347 293.24C322.7 281 320.7 280 301.6 294.19C288.86 303.66 280.39 312.12 265.48 308.94C250.57 305.76 218.17 287.83 189.8 259.55C161.43 231.27 142.46 197.93 139.27 183.07C136.08 168.21 144.68 159.84 154.06 147.07C167.28 129.07 166.28 126.07 154.98 101.77C146.17 82.87 122.14 44.77 106.08 28.97C88.9 12 88.9 15 77.83 19.6C68.8177 23.3919 60.1716 28.0012 52 33.37C36 44 27.12 52.83 20.91 66.1C14.7 79.37 11.91 110.48 43.98 168.74C76.05 227 98.55 256.79 145.12 303.23C191.69 349.67 227.5 374.64 279.85 404C344.61 440.27 369.45 433.2 382.76 427C396.07 420.8 404.94 412 415.59 396C420.973 387.842 425.592 379.206 429.39 370.2C434 359.17 437 359.17 420 342Z" stroke="#C53030" stroke-width="32" stroke-miterlimit="10"/>
</svg>
