<svg width="512" height="512" viewBox="0 0 512 512" fill="none" xmlns="http://www.w3.org/2000/svg">
<path d="M256 48C176.5 48 112 109.39 112 185C112 272 208 409.87 243.25 457.49C244.713 459.5 246.631 461.136 248.847 462.264C251.063 463.391 253.514 463.979 256 463.979C258.486 463.979 260.937 463.391 263.153 462.264C265.369 461.136 267.287 459.5 268.75 457.49C304 409.89 400 272.07 400 185C400 109.39 335.5 48 256 48Z" stroke="#C53030" stroke-width="32" stroke-linecap="round" stroke-linejoin="round"/>
<path d="M256 240C282.51 240 304 218.51 304 192C304 165.49 282.51 144 256 144C229.49 144 208 165.49 208 192C208 218.51 229.49 240 256 240Z" stroke="#C53030" stroke-width="32" stroke-linecap="round" stroke-linejoin="round"/>
</svg>
