<svg width="480" height="385" viewBox="0 0 480 385" fill="none" xmlns="http://www.w3.org/2000/svg">
<g clip-path="url(#clip0)">
<path d="M480 45.5002C461.995 53.3237 442.944 58.478 423.45 60.8002C443.937 48.804 459.343 29.7458 466.78 7.20017C447.411 18.5261 426.256 26.4729 404.22 30.7002C394.941 20.9755 383.781 13.2392 371.419 7.96162C359.057 2.68402 345.751 -0.0246733 332.31 0.000169345C277.89 0.000169345 233.85 43.4002 233.85 96.9002C233.811 104.342 234.664 111.761 236.39 119C197.367 117.171 159.155 107.216 124.2 89.7727C89.2444 72.3294 58.3149 47.7818 33.39 17.7002C24.6457 32.4414 20.0213 49.2606 20 66.4002C20 100 37.53 129.7 64 147.1C48.3173 146.728 32.9559 142.577 19.22 135V136.2C19.22 183.2 53.22 222.3 98.22 231.2C89.7578 233.456 81.0377 234.599 72.28 234.6C66.0658 234.611 59.8657 234.008 53.77 232.8C66.28 271.3 102.69 299.3 145.82 300.1C110.774 327.109 67.7462 341.708 23.5 341.6C15.6462 341.589 7.79966 341.121 0 340.2C45.0118 368.942 97.3345 384.146 150.74 384C332.1 384 431.18 236.3 431.18 108.2C431.18 104 431.07 99.8002 430.87 95.7002C450.101 82.0208 466.738 65.0213 480 45.5002Z" fill="#333333"/>
</g>
<defs>
<clipPath id="clip0">
<rect width="480" height="385" fill="white"/>
</clipPath>
</defs>
</svg>
